<svg xmlns="http://www.w3.org/2000/svg" width="10.182" height="12.219" viewBox="0 0 10.182 12.219"><path d="M20.869,11.415l1.677-1.677v7.426a.509.509,0,0,0,1.018,0V9.738l1.677,1.677a.509.509,0,0,0,.72-.72L23.415,8.149a.509.509,0,0,0-.72,0l-2.546,2.546a.509.509,0,1,0,.72.72Z" transform="translate(-17.964 -8)"/><path d="M21.673,40a.509.509,0,0,0-.509.509v2.036a.51.51,0,0,1-.509.509H13.527a.51.51,0,0,1-.509-.509V40.509a.509.509,0,1,0-1.018,0v2.036a1.529,1.529,0,0,0,1.527,1.527h7.128a1.529,1.529,0,0,0,1.527-1.527V40.509A.509.509,0,0,0,21.673,40Z" transform="translate(-12 -31.854)"/></svg>